<mxfile host="app.diagrams.net" agent="Mozilla/5.0 (Windows NT 10.0; Win64; x64) AppleWebKit/537.36 (KHTML, like Gecko) Chrome/137.0.0.0 Safari/537.36 Edg/137.0.0.0" version="27.1.3">
  <diagram name="Page-1" id="V7nNYCRXlvvbu9Zvr78z">
    <mxGraphModel dx="1723" dy="950" grid="1" gridSize="10" guides="1" tooltips="1" connect="1" arrows="1" fold="1" page="1" pageScale="1" pageWidth="850" pageHeight="1100" math="0" shadow="0">
      <root>
        <mxCell id="0" />
        <mxCell id="1" parent="0" />
        <mxCell id="U1qcP9zoH1vpuU0k_NpN-25" value="" style="rounded=0;whiteSpace=wrap;html=1;" vertex="1" parent="1">
          <mxGeometry x="570" y="130" width="190" height="290" as="geometry" />
        </mxCell>
        <mxCell id="U1qcP9zoH1vpuU0k_NpN-17" style="edgeStyle=orthogonalEdgeStyle;rounded=0;orthogonalLoop=1;jettySize=auto;html=1;entryX=0;entryY=0.5;entryDx=0;entryDy=0;" edge="1" parent="1" source="U1qcP9zoH1vpuU0k_NpN-2" target="U1qcP9zoH1vpuU0k_NpN-3">
          <mxGeometry relative="1" as="geometry" />
        </mxCell>
        <mxCell id="U1qcP9zoH1vpuU0k_NpN-2" value="Input Query" style="ellipse;whiteSpace=wrap;html=1;fillColor=#dae8fc;strokeColor=#6c8ebf;" vertex="1" parent="1">
          <mxGeometry x="110" y="210" width="100" height="60" as="geometry" />
        </mxCell>
        <mxCell id="U1qcP9zoH1vpuU0k_NpN-19" style="edgeStyle=orthogonalEdgeStyle;rounded=0;orthogonalLoop=1;jettySize=auto;html=1;entryX=0;entryY=0.5;entryDx=0;entryDy=0;" edge="1" parent="1" source="U1qcP9zoH1vpuU0k_NpN-3" target="U1qcP9zoH1vpuU0k_NpN-4">
          <mxGeometry relative="1" as="geometry">
            <Array as="points">
              <mxPoint x="410" y="280" />
              <mxPoint x="410" y="230" />
            </Array>
          </mxGeometry>
        </mxCell>
        <mxCell id="U1qcP9zoH1vpuU0k_NpN-20" style="edgeStyle=orthogonalEdgeStyle;rounded=0;orthogonalLoop=1;jettySize=auto;html=1;entryX=0;entryY=0.5;entryDx=0;entryDy=0;" edge="1" parent="1" source="U1qcP9zoH1vpuU0k_NpN-3" target="U1qcP9zoH1vpuU0k_NpN-8">
          <mxGeometry relative="1" as="geometry" />
        </mxCell>
        <mxCell id="U1qcP9zoH1vpuU0k_NpN-3" value="Sub-Question&amp;nbsp;&lt;span style=&quot;background-color: transparent; color: light-dark(rgb(0, 0, 0), rgb(255, 255, 255));&quot;&gt;Generator&lt;/span&gt;&lt;div&gt;(OpenAI Question Generator)&lt;/div&gt;" style="rounded=1;whiteSpace=wrap;html=1;fillColor=#d5e8d4;strokeColor=#82b366;" vertex="1" parent="1">
          <mxGeometry x="250" y="250" width="140" height="60" as="geometry" />
        </mxCell>
        <mxCell id="U1qcP9zoH1vpuU0k_NpN-21" style="edgeStyle=orthogonalEdgeStyle;rounded=0;orthogonalLoop=1;jettySize=auto;html=1;entryX=0;entryY=0.5;entryDx=0;entryDy=0;" edge="1" parent="1" source="U1qcP9zoH1vpuU0k_NpN-4" target="U1qcP9zoH1vpuU0k_NpN-10">
          <mxGeometry relative="1" as="geometry" />
        </mxCell>
        <mxCell id="U1qcP9zoH1vpuU0k_NpN-22" style="edgeStyle=orthogonalEdgeStyle;rounded=0;orthogonalLoop=1;jettySize=auto;html=1;entryX=0;entryY=0.5;entryDx=0;entryDy=0;" edge="1" parent="1" source="U1qcP9zoH1vpuU0k_NpN-4" target="U1qcP9zoH1vpuU0k_NpN-11">
          <mxGeometry relative="1" as="geometry" />
        </mxCell>
        <mxCell id="U1qcP9zoH1vpuU0k_NpN-24" style="edgeStyle=orthogonalEdgeStyle;rounded=0;orthogonalLoop=1;jettySize=auto;html=1;entryX=0;entryY=0.5;entryDx=0;entryDy=0;" edge="1" parent="1" source="U1qcP9zoH1vpuU0k_NpN-4" target="U1qcP9zoH1vpuU0k_NpN-12">
          <mxGeometry relative="1" as="geometry" />
        </mxCell>
        <mxCell id="U1qcP9zoH1vpuU0k_NpN-4" value="Extract Tools for each Sub Question" style="rounded=1;whiteSpace=wrap;html=1;fillColor=#fff2cc;strokeColor=#d6b656;" vertex="1" parent="1">
          <mxGeometry x="425" y="200" width="120" height="60" as="geometry" />
        </mxCell>
        <mxCell id="U1qcP9zoH1vpuU0k_NpN-18" style="edgeStyle=orthogonalEdgeStyle;rounded=0;orthogonalLoop=1;jettySize=auto;html=1;entryX=0;entryY=0.5;entryDx=0;entryDy=0;" edge="1" parent="1" source="U1qcP9zoH1vpuU0k_NpN-7" target="U1qcP9zoH1vpuU0k_NpN-3">
          <mxGeometry relative="1" as="geometry" />
        </mxCell>
        <mxCell id="U1qcP9zoH1vpuU0k_NpN-7" value="List Tools" style="ellipse;whiteSpace=wrap;html=1;fillColor=#dae8fc;strokeColor=#6c8ebf;" vertex="1" parent="1">
          <mxGeometry x="105" y="280" width="105" height="60" as="geometry" />
        </mxCell>
        <mxCell id="U1qcP9zoH1vpuU0k_NpN-23" style="edgeStyle=orthogonalEdgeStyle;rounded=0;orthogonalLoop=1;jettySize=auto;html=1;entryX=0;entryY=0.5;entryDx=0;entryDy=0;" edge="1" parent="1" source="U1qcP9zoH1vpuU0k_NpN-8" target="U1qcP9zoH1vpuU0k_NpN-11">
          <mxGeometry relative="1" as="geometry" />
        </mxCell>
        <mxCell id="U1qcP9zoH1vpuU0k_NpN-8" value="Sub Questions" style="rounded=1;whiteSpace=wrap;html=1;fillColor=#fff2cc;strokeColor=#d6b656;" vertex="1" parent="1">
          <mxGeometry x="425" y="290" width="120" height="60" as="geometry" />
        </mxCell>
        <mxCell id="U1qcP9zoH1vpuU0k_NpN-10" value="Query Execution for Question 1" style="rounded=1;whiteSpace=wrap;html=1;fillColor=#e1d5e7;strokeColor=#9673a6;" vertex="1" parent="1">
          <mxGeometry x="610" y="170" width="120" height="60" as="geometry" />
        </mxCell>
        <mxCell id="U1qcP9zoH1vpuU0k_NpN-11" value="Query Execution for Question 2" style="rounded=1;whiteSpace=wrap;html=1;fillColor=#e1d5e7;strokeColor=#9673a6;" vertex="1" parent="1">
          <mxGeometry x="610" y="250" width="120" height="60" as="geometry" />
        </mxCell>
        <mxCell id="U1qcP9zoH1vpuU0k_NpN-12" value="Query Execution for Question N" style="rounded=1;whiteSpace=wrap;html=1;fillColor=#e1d5e7;strokeColor=#9673a6;" vertex="1" parent="1">
          <mxGeometry x="610" y="330" width="120" height="60" as="geometry" />
        </mxCell>
        <mxCell id="U1qcP9zoH1vpuU0k_NpN-29" style="edgeStyle=orthogonalEdgeStyle;rounded=0;orthogonalLoop=1;jettySize=auto;html=1;entryX=0;entryY=0.5;entryDx=0;entryDy=0;" edge="1" parent="1" source="U1qcP9zoH1vpuU0k_NpN-13" target="U1qcP9zoH1vpuU0k_NpN-14">
          <mxGeometry relative="1" as="geometry" />
        </mxCell>
        <mxCell id="U1qcP9zoH1vpuU0k_NpN-13" value="Build QA Pairs&lt;br&gt;(SubQ + Answer + Source)" style="rounded=1;whiteSpace=wrap;html=1;fillColor=#ffe6cc;strokeColor=#d79b00;" vertex="1" parent="1">
          <mxGeometry x="790" y="245" width="120" height="60" as="geometry" />
        </mxCell>
        <mxCell id="U1qcP9zoH1vpuU0k_NpN-30" style="edgeStyle=orthogonalEdgeStyle;rounded=0;orthogonalLoop=1;jettySize=auto;html=1;entryX=0;entryY=0.5;entryDx=0;entryDy=0;" edge="1" parent="1" source="U1qcP9zoH1vpuU0k_NpN-14" target="U1qcP9zoH1vpuU0k_NpN-15">
          <mxGeometry relative="1" as="geometry" />
        </mxCell>
        <mxCell id="U1qcP9zoH1vpuU0k_NpN-14" value="Aggregate and Construct Node for Synthesizer" style="rounded=1;whiteSpace=wrap;html=1;fillColor=#ffe6cc;strokeColor=#d79b00;" vertex="1" parent="1">
          <mxGeometry x="950" y="245" width="120" height="60" as="geometry" />
        </mxCell>
        <mxCell id="U1qcP9zoH1vpuU0k_NpN-31" style="edgeStyle=orthogonalEdgeStyle;rounded=0;orthogonalLoop=1;jettySize=auto;html=1;entryX=0;entryY=0.5;entryDx=0;entryDy=0;" edge="1" parent="1" source="U1qcP9zoH1vpuU0k_NpN-15" target="U1qcP9zoH1vpuU0k_NpN-16">
          <mxGeometry relative="1" as="geometry" />
        </mxCell>
        <mxCell id="U1qcP9zoH1vpuU0k_NpN-15" value="Response Synthesizer" style="rounded=1;whiteSpace=wrap;html=1;fillColor=#f8cecc;strokeColor=#b85450;" vertex="1" parent="1">
          <mxGeometry x="1110" y="245" width="120" height="60" as="geometry" />
        </mxCell>
        <mxCell id="U1qcP9zoH1vpuU0k_NpN-16" value="Got Final Response" style="rounded=1;whiteSpace=wrap;html=1;fillColor=#dae8fc;strokeColor=#6c8ebf;" vertex="1" parent="1">
          <mxGeometry x="1260" y="245" width="120" height="60" as="geometry" />
        </mxCell>
        <mxCell id="U1qcP9zoH1vpuU0k_NpN-26" value="Parallel Routing to Query Engine" style="text;html=1;align=center;verticalAlign=middle;resizable=0;points=[];autosize=1;strokeColor=none;fillColor=none;fontSize=17;fontColor=light-dark(#d0a276, #295a0d);fontStyle=3" vertex="1" parent="1">
          <mxGeometry x="545" y="428" width="270" height="30" as="geometry" />
        </mxCell>
        <mxCell id="U1qcP9zoH1vpuU0k_NpN-28" value="" style="endArrow=classic;html=1;rounded=0;exitX=1;exitY=0.5;exitDx=0;exitDy=0;entryX=0;entryY=0.5;entryDx=0;entryDy=0;" edge="1" parent="1" source="U1qcP9zoH1vpuU0k_NpN-25" target="U1qcP9zoH1vpuU0k_NpN-13">
          <mxGeometry width="50" height="50" relative="1" as="geometry">
            <mxPoint x="640" y="400" as="sourcePoint" />
            <mxPoint x="690" y="350" as="targetPoint" />
          </mxGeometry>
        </mxCell>
      </root>
    </mxGraphModel>
  </diagram>
</mxfile>
